<svg xmlns="http://www.w3.org/2000/svg" viewBox="0 0 430 430">
  <defs>
    <style>
      .cls-1 {
        isolation: isolate;
      }

      .cls-2, .cls-6 {
        fill: #f9c9c0;
      }

      .cls-3, .cls-5 {
        fill: #109121;
      }

      .cls-4 {
        fill: #b26836;
      }

      .cls-5, .cls-6 {
        mix-blend-mode: multiply;
        opacity: 0.5;
      }

      .cls-7 {
        fill: #ebe6ef;
      }
    </style>
  </defs>
  <g class="cls-1">
    <g id="Warstwa_1" data-name="Warstwa 1">
      <g>
        <path class="cls-2" d="M274.2,144v29.34A59,59,0,0,1,245.53,224h0v18.69c0,16.83-13.65,30-30.48,30h-2.4a30.3,30.3,0,0,1-28.57-19.45,29.82,29.82,0,0,1-1.9-10.54V223.14h0c-1-.65-2-1.33-3-2h0c-1-.71-1.93-1.46-2.87-2.22s-1.85-1.58-2.74-2.41c-.44-.42-.88-.84-1.31-1.27a59,59,0,0,1-13.1-19.64c-.29-.72-.57-1.45-.83-2.18s-.61-1.76-.88-2.65a58.66,58.66,0,0,1-2.61-17.37V144.42q4.89-1.11,9.4-2.38l.23-.06c1.93-.54,3.8-1.1,5.63-1.69,1-.29,1.89-.6,2.82-.92,1.85-.61,3.65-1.26,5.4-1.92,50.42-19,59.32-52,59.32-52,32.49,16.94,36.26,46.13,36.6,55.54C274.27,142.9,274.2,144,274.2,144Z"/>
        <path class="cls-3" d="M332.4,318.48v30.36a14.76,14.76,0,0,1-14.76,14.76H296.71c-18.43,1.45-28.27,5.49-35.76,9.17s-12.65,7-21.72,7H188.76c-18.12,0-20.52-13.32-57.6-16.2H112.44a14.76,14.76,0,0,1-14.76-14.76V318.48a75.83,75.83,0,0,1,75.84-75.84h8.65c0,16.83,13.64,30,30.47,30H215c16.83,0,30.48-13.17,30.48-30h11A75.83,75.83,0,0,1,332.4,318.48Z"/>
        <path class="cls-4" d="M274.2,144v-3c-.34-9.41-4.11-38.6-36.6-55.54,0,0-11.54,42.84-82.8,59-1.23.27-2.49.55-3.76.81,0,0-25.46-75,6.14-93.5a13.93,13.93,0,0,1,13.15.25c4.88,3.12,9.77,8.21,12.85,10.84a12.09,12.09,0,0,0,8.41,2.9c4.23-.21,9.74-2.2,15.88-4.52,50.27-19,72.92,15.58,73.45,30.24C281.84,117,283.82,138.23,274.2,144Z"/>
        <path class="cls-5" d="M184.07,253.19a29.82,29.82,0,0,1-1.9-10.54c-7.3,0-15.73-.17-22.87,1.32h0a75.47,75.47,0,0,0-40.19,21.69c-1.38,1.41-2.67,2.88-3.94,4.39h0l-.59.72h0a75.76,75.76,0,0,0-15.11,31.34c-2.83,10.67-1.46,35.5-1.76,46.7a14.73,14.73,0,0,0,14.76,14.75c1.75.08,20.24-.2,21.47.25-3.73-29.34-6-69.72,12.21-92.44,6.09-9.22,22-16.87,35.84-18.12C182,253.28,182.74,253.26,184.07,253.19Z"/>
        <path class="cls-6" d="M183.89,224.2l-.24-.15.25.15Z"/>
        <path class="cls-6" d="M245.53,224v5.37s0,0,0,0V224Z"/>
        <path class="cls-6" d="M245.52,224h0l-1.67,1c-.57.31-1.14.62-1.72.92s-1.15.59-1.74.86c-1.76.83-3.57,1.57-5.42,2.24-.62.22-1.24.43-1.87.62s-1.09.34-1.64.5l-.34.09-1.83.48c-.65.16-1.3.31-1.95.44l-1.13.22a58.76,58.76,0,0,1-20.57-8.14h0a58.91,58.91,0,0,1-27.36-49.79v-35.9a177.9,177.9,0,0,1-23.48,7v28.93a58.91,58.91,0,0,0,27.36,49.79h0v19.5h0a29.82,29.82,0,0,0,1.9,10.54A157.47,157.47,0,0,0,212.33,249c12.1-3,26.74-8.86,33.19-19.67,0,0,0,0,0,0V224Z"/>
        <g>
          <path class="cls-7" d="M246.48,323.63h0c0-9.76,1-17.67,2.23-17.67H249c.52,0,2.29,1.29,5.78,4.9q9.39-9.18,18.78,0c3.5-3.61,5.26-4.89,5.79-4.9h.23c1.24,0,2.23,7.91,2.23,17.67h0v1.09a15.6,15.6,0,0,1-15.6,15.6h-4.08a15.61,15.61,0,0,1-15.6-15.6v-2.16"/>
          <path class="cls-7" d="M266.16,343.82h-4.08a19.12,19.12,0,0,1-19.1-19.1v-2.16a1.09,1.09,0,0,1,0-.18,105.93,105.93,0,0,1,.67-11.69c.42-3.28,1-8.23,5.05-8.23h.35c1.14,0,2.41.37,5.85,3.64,6-4.46,12.4-4.46,18.42,0,3.45-3.27,4.72-3.61,5.86-3.64h.35c4,0,4.63,5,5,8.23a105.45,105.45,0,0,1,.68,11.67v2.36A19.12,19.12,0,0,1,266.16,343.82ZM250,323.09v1.63a12.12,12.12,0,0,0,12.1,12.1h4.08a12.11,12.11,0,0,0,12.1-12.1v-1.09a99.23,99.23,0,0,0-.61-12c-.47.46-1,1-1.62,1.63a3.55,3.55,0,0,1-2.47,1.07,3.42,3.42,0,0,1-2.49-1c-4.93-4.82-9-4.82-13.89,0a3.46,3.46,0,0,1-2.5,1,3.52,3.52,0,0,1-2.46-1.07c-.62-.63-1.15-1.17-1.62-1.63A97,97,0,0,0,250,323.09Z"/>
        </g>
      </g>
    </g>
  </g>
</svg>
